<svg width="18" height="17" viewBox="0 0 18 17" fill="none" xmlns="http://www.w3.org/2000/svg">
<path d="M17.1733 9.06731V8.55856C17.163 8.51447 17.1492 8.47207 17.1424 8.42798C17.0863 8.05728 16.9349 7.70696 16.7027 7.41047C16.6576 7.36193 16.6272 7.30184 16.6151 7.23706C16.6029 7.17228 16.6095 7.10544 16.634 7.04417C16.7433 6.71892 16.7742 6.37301 16.7244 6.03389C16.6746 5.69477 16.5455 5.37178 16.3472 5.09055C16.3126 5.02545 16.2983 4.9517 16.306 4.87857C16.3322 4.65673 16.3471 4.43373 16.3506 4.21041C16.3296 3.69605 16.1245 3.20574 15.7719 2.8266C15.733 2.7779 15.7097 2.71886 15.7049 2.65701C15.7033 2.39354 15.6879 2.13033 15.6585 1.86844C15.6123 1.56631 15.4992 1.27794 15.3274 1.02382C15.1555 0.769708 14.9291 0.556089 14.6642 0.398144C14.2575 0.160092 13.7956 0.0292821 13.3229 0.0182734C12.8713 -0.00377264 12.4179 0.0182736 11.9662 0.00131516C11.1703 -0.0149797 10.3759 0.0792124 9.60653 0.28113C8.89726 0.465977 8.19829 0.691526 7.4976 0.906898C6.96178 1.07648 6.44142 1.29016 5.87812 1.34951C5.39039 1.40039 5.14308 1.71242 5.14652 2.2127C5.16026 4.36643 5.14652 6.51846 5.14652 8.67218C5.14652 8.74001 5.14652 8.80785 5.14652 8.87568C5.15693 9.02858 5.21946 9.1735 5.32393 9.28682C5.4284 9.40014 5.56865 9.4752 5.72184 9.49975C5.89574 9.5197 6.05783 9.59674 6.18209 9.71852C6.52557 10.0577 6.85874 10.3969 7.1713 10.7632C7.68651 11.3652 8.20172 11.9825 8.70663 12.5964C8.82313 12.7284 8.92934 12.869 9.02434 13.0169C9.30427 13.4833 9.38843 14.0141 9.49319 14.5347C9.59794 15.0553 9.73533 15.5522 10.0805 15.9847C10.1483 16.0845 10.2418 16.1648 10.3513 16.2172C10.4609 16.2696 10.5826 16.2924 10.7039 16.2831C10.9682 16.2731 11.2309 16.239 11.4888 16.1814C11.7485 16.1132 11.9955 16.0044 12.2204 15.8592C12.5943 15.5975 12.8501 15.202 12.9331 14.7569C13.1327 13.9679 13.0945 13.1386 12.8232 12.3708C12.6772 11.9893 12.4711 11.6297 12.2959 11.2583C12.2375 11.1362 12.1912 11.0074 12.1242 10.8615H12.3234C13.2508 10.8615 14.1799 10.8615 15.1073 10.8615C15.4706 10.8676 15.8286 10.7743 16.1417 10.592C16.4548 10.4098 16.7107 10.1456 16.8813 9.82875C17.0022 9.58437 17.0999 9.32947 17.1733 9.06731Z" fill="#3C7AD8"/>
<path d="M0 8.95784C0.0557611 9.14575 0.182383 9.30538 0.353778 9.40385C0.457139 9.45755 0.570507 9.48987 0.686948 9.49882C1.71737 9.5056 2.74779 9.5056 3.77822 9.49882C4.18695 9.49882 4.46516 9.19017 4.46516 8.75095C4.46516 6.54239 4.46516 4.33383 4.46516 2.12528C4.46516 1.73353 4.27625 1.46559 3.93621 1.38419C3.85539 1.3684 3.77295 1.36213 3.69063 1.36554H0.772817C0.609258 1.34537 0.443809 1.38395 0.306663 1.47424C0.169518 1.56452 0.0698187 1.70049 0.0257606 1.85733C0.0189715 1.86886 0.0102627 1.87918 0 1.88786C0 4.24848 0 6.60514 0 8.95784Z" fill="#3C7AD8"/>
</svg>
