<svg width="32" height="21" viewBox="0 0 32 21" fill="none" xmlns="http://www.w3.org/2000/svg">
<path d="M26.6598 4.44458C20.7704 -1.48153 11.2189 -1.48153 5.32992 4.44458L0.484917 9.32491C-0.161639 9.97549 -0.161639 11.0245 0.484917 11.6751L5.33505 16.5554C11.2245 22.4815 20.7759 22.4815 26.6649 16.5554L31.5151 11.6751C32.1616 11.0245 32.1616 9.97549 31.5151 9.32491L26.6598 4.44458ZM15.9972 15.6642C13.162 15.6642 10.8648 13.3526 10.8648 10.4998C10.8648 7.64697 13.162 5.33544 15.9972 5.33544C18.8324 5.33544 21.1296 7.64697 21.1296 10.4998C21.1296 13.3526 18.8324 15.6642 15.9972 15.6642Z" fill="#3C7AD8"/>
</svg>
