<svg width="31" height="22" viewBox="0 0 31 22" fill="none" xmlns="http://www.w3.org/2000/svg">
<path d="M30.6624 10.2604L19.296 0.26063C18.9938 -0.00686532 18.5559 -0.074371 18.1826 0.085632C17.808 0.245629 17.5678 0.604373 17.5678 1.00062V5.30293C14.6577 5.30543 7.80444 5.93792 3.32634 11.3777C1.08146 14.1051 0.320717 18.9049 0.0339704 20.7125L0.0120127 20.8475C-0.0577364 21.2888 0.181217 21.72 0.599692 21.9075C0.73919 21.97 0.886435 22 1.03239 22C1.32559 22 1.61362 21.8788 1.81513 21.6538C3.47615 19.7926 6.35903 17.2926 10.65 15.9515C12.8845 15.254 15.2055 14.9565 17.5654 15.0678V20.0001C17.5654 20.3864 17.7953 20.7376 18.157 20.9039C18.516 21.0676 18.9448 21.0189 19.2548 20.7739L30.6212 11.7741C30.8537 11.5903 30.9919 11.3166 30.9997 11.0266C31.0074 10.7353 30.8834 10.4566 30.6613 10.2604L30.6624 10.2604Z" fill="#47D055"/>
</svg>
