<svg width="18" height="17" viewBox="0 0 18 17" fill="none" xmlns="http://www.w3.org/2000/svg">
<path d="M17.1733 7.21784V7.7266C17.163 7.77069 17.1492 7.81309 17.1424 7.85718C17.0863 8.22788 16.9349 8.57819 16.7027 8.87469C16.6576 8.92323 16.6272 8.98332 16.6151 9.0481C16.6029 9.11287 16.6095 9.17972 16.634 9.24099C16.7433 9.56623 16.7742 9.91214 16.7244 10.2513C16.6746 10.5904 16.5455 10.9134 16.3472 11.1946C16.3126 11.2597 16.2983 11.3335 16.306 11.4066C16.3322 11.6284 16.3471 11.8514 16.3506 12.0747C16.3296 12.5891 16.1245 13.0794 15.7719 13.4586C15.733 13.5073 15.7097 13.5663 15.7049 13.6281C15.7033 13.8916 15.6879 14.1548 15.6585 14.4167C15.6123 14.7189 15.4992 15.0072 15.3274 15.2613C15.1555 15.5154 14.9291 15.7291 14.6642 15.887C14.2575 16.1251 13.7956 16.2559 13.3229 16.2669C12.8713 16.2889 12.4179 16.2669 11.9662 16.2838C11.1703 16.3001 10.3759 16.2059 9.60653 16.004C8.89726 15.8192 8.19829 15.5936 7.4976 15.3783C6.96178 15.2087 6.44142 14.995 5.87812 14.9356C5.39039 14.8848 5.14308 14.5727 5.14652 14.0725C5.16026 11.9187 5.14652 9.7667 5.14652 7.61298C5.14652 7.54514 5.14652 7.47731 5.14652 7.40947C5.15693 7.25657 5.21946 7.11166 5.32393 6.99834C5.4284 6.88501 5.56865 6.80996 5.72184 6.7854C5.89574 6.76545 6.05783 6.68841 6.18209 6.56664C6.52557 6.22747 6.85874 5.8883 7.1713 5.522C7.68651 4.91997 8.20172 4.30268 8.70663 3.68879C8.82313 3.55672 8.92934 3.41612 9.02434 3.26822C9.30427 2.80186 9.38843 2.27106 9.49319 1.75043C9.59794 1.22981 9.73533 0.732925 10.0805 0.300484C10.1483 0.200651 10.2418 0.120404 10.3513 0.0679602C10.4609 0.015516 10.5826 -0.00724252 10.7039 0.00201457C10.9682 0.01209 11.2309 0.0461505 11.4888 0.103765C11.7485 0.171952 11.9955 0.280731 12.2204 0.425976C12.5943 0.687658 12.8501 1.08317 12.9331 1.52828C13.1327 2.31721 13.0945 3.14656 12.8232 3.91433C12.6772 4.2959 12.4711 4.65542 12.2959 5.02681C12.2375 5.14891 12.1912 5.27779 12.1242 5.42364H12.3234C13.2508 5.42364 14.1799 5.42364 15.1073 5.42364C15.4706 5.4176 15.8286 5.51086 16.1417 5.69311C16.4548 5.87537 16.7107 6.13953 16.8813 6.45641C17.0022 6.70079 17.0999 6.95568 17.1733 7.21784Z" fill="#3C7AD8"/>
<path d="M0 7.32731C0.0557611 7.13941 0.182383 6.97977 0.353778 6.88131C0.457139 6.8276 0.570507 6.79529 0.686948 6.78634C1.71737 6.77955 2.74779 6.77955 3.77822 6.78634C4.18695 6.78634 4.46516 7.09498 4.46516 7.53421C4.46516 9.74276 4.46516 11.9513 4.46516 14.1599C4.46516 14.5516 4.27625 14.8196 3.93621 14.901C3.85539 14.9168 3.77295 14.923 3.69063 14.9196H0.772817C0.609258 14.9398 0.443809 14.9012 0.306663 14.8109C0.169518 14.7206 0.0698187 14.5847 0.0257606 14.4278C0.0189715 14.4163 0.0102627 14.406 0 14.3973C0 12.0367 0 9.68002 0 7.32731Z" fill="#3C7AD8"/>
</svg>
