<svg width="24" height="20" viewBox="0 0 24 20" fill="none" xmlns="http://www.w3.org/2000/svg">
<path fill-rule="evenodd" clip-rule="evenodd" d="M10.2098 0.985074C10.3275 1.06785 10.4045 1.2031 10.4045 1.35584C10.4045 1.48176 10.3532 1.59485 10.2704 1.67646L7.75897 4.26249C6.25376 5.812 6.25961 8.27222 7.75431 9.81475L7.8266 9.88704L8.28363 10.3359C9.6431 11.6697 11.7803 11.7933 13.2843 10.6239L14.1774 9.92901C15.1568 9.1665 16.5571 9.28192 17.3988 10.1948L18.0961 10.9515C19.2736 12.2294 19.2515 14.2043 18.0448 15.4555L17.8431 15.6654L15.2384 18.2433C14.1098 19.3719 13.5828 19.6633 12.9497 19.8557C12.3154 20.0481 11.6683 20.0481 11.034 19.8557C10.4009 19.6633 9.87395 19.3719 8.74532 18.2433L1.96663 11.4646C-0.655543 8.84123 -0.655543 4.58917 1.96663 1.96705C3.22116 0.712526 4.84761 0.0584459 6.49034 0.00364567C7.77751 -0.0394931 9.06935 0.300954 10.2096 0.985363L10.2098 0.985074ZM21.9867 1.96443L21.9891 1.96677C24.6124 4.58894 24.6124 8.84097 21.9891 11.4643L21.6906 11.7628L21.2907 12.151C21.054 12.3807 20.6762 12.3749 20.4466 12.1382C20.3661 12.0542 20.3113 11.9505 20.2892 11.8374C20.0886 10.816 19.5663 9.88445 18.7222 9.04499L18.1322 8.57629C16.6188 7.36955 14.4618 7.41038 12.9951 8.6719L12.7783 8.85728L12.8272 8.80248L12.6803 8.94939C11.7488 9.88329 10.2389 9.88562 9.30486 8.95522L9.09849 8.75235C8.16343 7.82194 8.15993 6.3109 9.09033 5.37598L9.09383 5.37365L12.4938 1.96923C15.1148 -0.652942 19.3646 -0.655404 21.9867 1.96443Z" fill="white"/>
</svg>
